<svg width="15" height="17" viewBox="0 0 15 17" fill="none" xmlns="http://www.w3.org/2000/svg">
<g clip-path="url(#clip0_44_2499)">
<path d="M1.65369 16.95C1.38227 16.9488 1.11546 16.88 0.877751 16.75C0.631017 16.6145 0.425279 16.4161 0.281771 16.1753C0.138263 15.9344 0.0622657 15.6598 0.0615845 15.38V2.83002C0.0615845 2.07945 0.362007 1.35962 0.896818 0.828888C1.43163 0.29816 2.15697 0 2.91331 0H11.4484C12.2048 0 12.9301 0.29816 13.4649 0.828888C13.9997 1.35962 14.3002 2.07945 14.3002 2.83002V15.38C14.2983 15.6594 14.2218 15.9333 14.0785 16.1738C13.9352 16.4143 13.7301 16.6128 13.4842 16.749C13.2384 16.8852 12.9605 16.9543 12.679 16.9492C12.3975 16.9441 12.1225 16.865 11.8818 16.72L7.77033 14.19C7.59484 14.0819 7.39245 14.0247 7.18591 14.0247C6.97938 14.0247 6.77699 14.0819 6.6015 14.19L2.49003 16.72C2.23668 16.8688 1.94809 16.9482 1.65369 16.95ZM2.91331 2C2.69149 2 2.47873 2.08745 2.32188 2.2431C2.16503 2.39876 2.07697 2.60989 2.07697 2.83002V14.64L6.6015 11.87C6.77699 11.762 6.97938 11.7047 7.18591 11.7047C7.39245 11.7047 7.59484 11.762 7.77033 11.87L12.2848 14.64V2.83002C12.2848 2.60989 12.1967 2.39876 12.0399 2.2431C11.883 2.08745 11.6703 2 11.4484 2H2.91331Z" fill="white"/>
</g>
<defs>
<clipPath id="clip0_44_2499">
<rect width="14.2387" height="16.95" fill="white" transform="translate(0.0615234)"/>
</clipPath>
</defs>
</svg>
