<svg width="27" height="21" viewBox="0 0 27 21" fill="none" xmlns="http://www.w3.org/2000/svg">
<g clip-path="url(#clip0_44_2506)">
<path d="M1.32297 11.77C1.11478 11.7688 0.912102 11.7037 0.742739 11.5835C0.573375 11.4633 0.445638 11.2941 0.377155 11.099C0.308672 10.9039 0.302814 10.6925 0.360303 10.4939C0.417791 10.2953 0.535812 10.1193 0.698209 9.99002L12.9114 0.220001C13.0893 0.0804922 13.3095 0.00460815 13.5362 0.00460815C13.7629 0.00460815 13.9831 0.0804922 14.161 0.220001L26.6059 9.63C26.8184 9.79179 26.9575 10.0307 26.9924 10.2942C27.0274 10.5577 26.9554 10.8242 26.7924 11.035C26.6294 11.2459 26.3886 11.3838 26.1231 11.4185C25.8576 11.4532 25.5891 11.3818 25.3766 11.22L13.7277 2.40002C13.6817 2.36434 13.6249 2.34494 13.5665 2.34494C13.508 2.34494 13.4512 2.36434 13.4052 2.40002L1.95782 11.55C1.77525 11.6886 1.55281 11.7657 1.32297 11.77Z" fill="white"/>
<path d="M20.5095 20.08H17.4865C17.1702 20.08 16.857 20.0182 16.5648 19.8981C16.2726 19.778 16.007 19.6019 15.7834 19.38C15.5598 19.1581 15.3824 18.8946 15.2614 18.6046C15.1403 18.3146 15.0781 18.0039 15.0781 17.69V14.91C15.0781 14.5785 14.9454 14.2605 14.7092 14.0261C14.4729 13.7917 14.1525 13.66 13.8185 13.66C13.4844 13.66 13.164 13.7917 12.9277 14.0261C12.6915 14.2605 12.5588 14.5785 12.5588 14.91V17.69C12.5588 18.3239 12.305 18.9318 11.8534 19.38C11.4017 19.8282 10.7892 20.08 10.1504 20.08H6.87544C6.2367 20.08 5.62416 19.8282 5.1725 19.38C4.72084 18.9318 4.46704 18.3239 4.46704 17.69V10.9L6.48243 9.36002V17.69C6.48243 17.7412 6.49257 17.7919 6.51232 17.8393C6.53207 17.8866 6.56107 17.9296 6.59756 17.9658C6.63406 18.002 6.67732 18.0307 6.725 18.0503C6.77268 18.0699 6.82383 18.08 6.87544 18.08H10.1504C10.2547 18.08 10.3546 18.0389 10.4283 17.9658C10.502 17.8927 10.5435 17.7934 10.5435 17.69V14.91C10.5435 14.048 10.8885 13.2214 11.5027 12.6119C12.1169 12.0024 12.9499 11.66 13.8185 11.66C14.687 11.66 15.52 12.0024 16.1342 12.6119C16.7484 13.2214 17.0935 14.048 17.0935 14.91V17.69C17.096 17.7926 17.1383 17.8904 17.2114 17.963C17.2846 18.0356 17.383 18.0775 17.4865 18.08H20.5095C20.613 18.0775 20.7114 18.0356 20.7846 17.963C20.8578 17.8904 20.9 17.7926 20.9026 17.69V9.36002L22.9179 10.92V17.69C22.9179 18.3239 22.6641 18.9318 22.2125 19.38C21.7608 19.8282 21.1483 20.08 20.5095 20.08Z" fill="white"/>
</g>
<defs>
<clipPath id="clip0_44_2506">
<rect width="26.6837" height="20.08" fill="white" transform="translate(0.315369)"/>
</clipPath>
</defs>
</svg>
