<svg width="20" height="20" viewBox="0 0 20 20" fill="none" xmlns="http://www.w3.org/2000/svg">
<g clip-path="url(#clip0_44_2497)">
<path d="M19.1966 17.34L15.0651 13.4C16.4117 11.8164 17.0991 9.7829 16.9871 7.71385C16.8752 5.64481 15.9723 3.69601 14.4626 2.26467C12.9529 0.833322 10.9499 0.0271614 8.86197 0.0105464C6.77407 -0.00606857 4.75845 0.768085 3.22581 2.17522C1.69316 3.58235 0.758953 5.51654 0.61358 7.58354C0.468207 9.65055 1.12253 11.6948 2.44334 13.2995C3.76416 14.9043 5.65206 15.9488 7.72204 16.2202C9.79203 16.4916 11.8884 15.9693 13.5838 14.76L17.806 18.76C17.9928 18.9386 18.2419 19.039 18.5013 19.04C18.6371 19.0395 18.7713 19.0118 18.896 18.9585C19.0206 18.9052 19.1332 18.8275 19.2269 18.73C19.4045 18.5396 19.5007 18.2883 19.495 18.0289C19.4894 17.7696 19.3823 17.5225 19.1966 17.34ZM2.57976 8.14998C2.57777 6.9332 2.93956 5.74319 3.61931 4.73052C4.29907 3.71784 5.26623 2.928 6.39846 2.46099C7.53069 1.99397 8.77705 1.87075 9.97988 2.10692C11.1827 2.34309 12.2879 2.92804 13.1556 3.78774C14.0233 4.64743 14.6145 5.74322 14.8545 6.93648C15.0944 8.12973 14.9723 9.36682 14.5035 10.4912C14.0348 11.6155 13.2405 12.5766 12.2211 13.2528C11.2017 13.929 10.0032 14.29 8.77709 14.29C7.13602 14.2874 5.56276 13.6399 4.40141 12.4893C3.24005 11.3387 2.58509 9.77852 2.57976 8.14998Z" fill="white"/>
</g>
<defs>
<clipPath id="clip0_44_2497">
<rect width="18.9245" height="19.06" fill="white" transform="translate(0.584595)"/>
</clipPath>
</defs>
</svg>
